<svg enable-background="new 0 0 80 80" viewBox="0 0 80 80" xmlns="http://www.w3.org/2000/svg"><path d="m47.3 17.69c-.01-.02-.03-.04-.04-.06l-.24.3c-.05-.11.07-.23.19-.38-.01-.02-.03-.04-.04-.06-.37.57-1.15 1.3-1.07 1.47.24-.19.35-.45.58-.64.11-.16.17-.24.04-.03-.02.01-.03.02-.04.03-.11.17-.27.43-.3.51.45-.42.7-.8.92-1.14z" fill="#ff8300"/><path d="m43.6 13.33c-1.08-.89-4.47-2.51-7.16-2.32 0 0-1.61.11-3.08.37-1.23.22-2.66.94-3.82 1.64l7.79 3.61c.04.02.07.03.11.04.03.02.04.02.05.04l.57.26h.02c.01.01.03.02.04.03l.62.29c.1.02.19.03.22.01.11.07-.03.05-.06.06l.04.02.42.14c0 .02-.01.04-.02.05l3.08 1.43c.06-.01.24.04.36.07.54.32 1.39.7 2.03 1.01.15-.15.29-.31.41-.5l-.17.4c.15-.17.28-.4.35-.5l.05.11c.38-.72 1.03-1.05 1.15-1.56-.06.33.28-.28.55-.55-1.26-1.72-2.91-3.62-3.55-4.15zm-6.1.06c1.91-.85.52 1.91 0 0zm1.52 1.47c-.22 0-.25-.23-.32-.4.16-.05.25-.17.36-.27.26.14.05.54-.04.67zm.18-1.7c-.06-.16.15-.09.19-.06-.01.06-.12.04-.19.06zm.99 1.72c-.45.18-.43-.22-.49-.43.16-.02.37-.12.48-.06-.02.23.09.3.01.49zm.61 3.35-.11-.08.4.22zm.01-2.53c-.07-.13-.03-.2.02-.34.14.01.23.08.26.22-.12.07-.1.19-.28.12z" fill="#ff8300"/><path d="m52.12 38.88c0-.36-.31-2.59-.49-4.58l-.68-.23c.38.13.4.04.5-.01-.26-.11-.4-.12-.58-.19.12.02.24.04.12-.06l-.92-.26c.04.04.14.09.22.13-.21-.1-.7-.26-.98-.47.04-.02.16 0 .2-.02.22.21.4.2.56.2-.6-.26-.14-.09-.39-.28-.42-.19-.64-.16-.56-.04-.4-.22-.57-.32-.94-.43-.03.03-.04.06-.07.08l.05-.09c-.02-.01-.05-.01-.07-.02-.18.23-.4.51-.43.6-.05-.02.11-.51-.12-.35-.73.8-1.19 1.75-1.03 1.8l.97-1.35c.13.04-.68.97-.52 1.02l-1.03 1.12c.12-.15.48-.61.28-.49-.42.5-.24.24-.57.53.21-.39.5-.98.74-1.51l-.85.98c-.16.43-.25.8-.3.95-.41.42-.48.09-.42-.05-.38.42-.5.7-.61.97.05.38.09.7.1.92.09 1.13-.21 2.22-.29 4.14s-.38 8.1-.4 8.85-.95 5.35-1 5.86-.43 3.45-1.05 4.72c-.63 1.27-1.94 3.75-2.18 4.28-.25.53-1.81 2.28-2.93 2.67-1.11.39-5.27.25-5.66 0-.4-.25-1.68-1.01-2.5-2.63-.82-1.61-2.2-5.47-2.48-6.24s-.63-3.99-.63-3.99-.47-7.25-.42-8.47.42-3.68.42-4.78-.16-3.74.11-5.13c.26-1.39.79-3.19 1.17-5.01.37-1.82.53-3.19 1.04-4.2s1.05-2.1 1.58-3.22 1.81-3.68 2.73-4.38c.27-.21.52-.39.75-.54-.36-.35-.72-.68-1.06-.98l.31.35c-.08-.12-.7-.56-.94-.91.06.05.18.14.23.2.03-.05-.03-.22-.25-.45l-.15-.02-.05-.14c-.35-.34.02.19-.33-.15-.03-.37-1.48-1.47-1.63-1.92-.36-.1.64.66.27.52-.09-.12-.11-.19-.33-.42v.15c-.64-.67-1.02-1.11-1.45-1.56-.88.75-1.74 1.59-2.19 2.06-.69.73-2.04 3.29-2.67 4.31s-1.5 2.65-1.82 3.6c-.32.94-1.02 3.2-1.33 4.14-.32.95-1.09 5.25-1.12 5.67s-.38 2.09-.5 2.66c-.11.57-.42 3.04-.42 3.92s-.14 7.63-.14 8.92 1.03 11.98 1.35 13.38 3.7 8.2 5.04 9.81 6.57 4.02 7.49 4.13 3.18.02 4.21.03 4.6-1.15 5.76-1.78c1.15-.63 4.07-3.58 4.63-4.24.55-.66 1.1-1.91 1.69-2.7.58-.79 1.75-3.98 2.24-5.28s1.9-7.8 2.03-8.47.45-7.43.66-7.89c.17-.46.03-7.18.03-7.74zm-25.65-16.1c0 .14-.25.21-.37.13.03-.05.04-.11.03-.19.1-.01.19-.02.29-.02-.01.04.01.07.05.08zm-.06-1.99c-.05.06-.06.17-.05.29-.16.02-.27-.02-.38-.05-.09-.36.26-.4.43-.24zm-7.98 39.38c-.02.05-.02.07-.02.07 0-.01.02-.07.03-.1-.01.01-.01.02-.01.03zm13.93 11.72c-.06.15-.07.38-.18.45-.2-.12-.31-.06-.43-.22.06-.48.39-.28.61-.23zm-2.9-2.75c.17.01.03.17-.01.2-.05-.03 0-.12.01-.2zm-.63-.38c.03.05.09.08.17.1-.03.09-.05.18-.08.28-.05-.02-.09-.01-.11.02-.13-.06-.11-.31.02-.4zm.04 1.26c-.01.17.07.3.12.43-.22.19-.52-.15-.61-.28.07-.2.3-.15.49-.15zm-.34.44c.11.27-.29.46-.45.5-.17-.14-.05-.33 0-.52.16.06.3.03.45.02zm-.37-2.83c-.07.04-.1.15-.12.26-.16-.02-.25-.09-.35-.15.01-.37.36-.31.47-.11zm-1.14 2.34.23.26c-.09.11-.33.01-.37-.13.05-.01.09-.05.14-.13zm-2.11-7.51c.16.47-.67.61-1.01.52.18-.34.59-.4 1.01-.52zm.42 6.01c-1.12.77-.8-1.81 0 0zm-.15-1.42c.06-.48.4-.27.61-.22-.06.15-.07.38-.18.45-.2-.12-.31-.06-.43-.23zm-2.78-6.56c-.01.39-.56.26-.57-.07.14-.25.4-.1.57.07zm-.4-1.5c.38-.08.4-.68.8-.72.09.46-.2.67-.26 1.04-.2-.03-.31.08-.51.04-.05-.07-.03-.23-.03-.36zm1.23 3c.1.6-.69.43-.76.78-.13-.08-.35-.07-.48-.25.29-.35.64-1.14 1.24-.53zm-1.94-28c-.07-.03-.18 0-.29.04-.07-.15-.06-.26-.06-.38.32-.19.46.14.35.34zm-.14-1.68c-.06-.26.32-.31.44-.18-.01.21-.26.2-.44.18zm.8 2.14c-.08.44-.68.61-1.17.45.22-.29.87-.4 1.17-.45zm.27 2.09c-.21-.54-.83-.42-1.01-1 .44-.24.75.13 1.16.13.03.3.18.43.22.73-.06.09-.23.1-.37.14zm.28 5.17c-.13.06-.2.02-.34-.03.02-.14.09-.22.23-.25.07.13.19.11.11.28zm-.79 4.12c.03-.05.03-.12 0-.2.09-.02.19-.04.28-.06.01.05.03.08.07.08.02.15-.21.25-.35.18zm.54 2.83c-.17 0-.18-.17-.28-.24-.17.02-.21.1-.29.09-.85-.99.58-.9.57.15zm-.4-8.86c.15 1.12-1.07-.03 0 0zm-.31-2.67c.07.26-.3.32-.43.2.01-.21.26-.22.43-.2zm.05 1.59c-.32.4-.84-.16-.89-.48.36.03.67.16.89.48zm.1 1.8c-.15.36-.56.44-.97.59-.19-.46.62-.65.97-.59zm-.38 1.15c-.07.02-.08-.04-.14-.04-.04-.15.08-.14.04-.29.21-.01.2.2.1.33zm.21 2.79c-.24.28-.9.34-1.2.36.11-.43.73-.55 1.2-.36zm.74 6.63c-.23.44-.9-.06-1.08-.36.38-.12.71.14 1.08.36zm-.49 3.08c.18.05.34 0 .5-.03.15.29-.29.54-.45.6-.2-.13-.09-.36-.05-.57zm.61-9.89c.01 1.13-1.06-.15 0 0zm-.04 8.7c-.09-1.12 1.07.08 0 0zm.53-22.56c-.06-.13-.18-.12-.09-.29.14-.05.2-.01.33.05-.03.14-.11.22-.24.24zm.5 7.77c-.15.09-.21.22-.3.34-.28-.08-.16-.52-.1-.67.21-.04.29.18.4.33zm-.35-4.92c-.15 0-.33.05-.39-.13.15-.18.48-.09.39.13zm-.32 7.81c-.05-.17.11-.22.15-.34-.07-.15-.15-.17-.17-.25.03-.04.05-.05.07-.09-.02 0-.04 0-.06 0h.03.03c.63-.89.91.4-.05.68zm.49 19.35c-.04-.07.01-.09 0-.15.13-.08.16.03.29-.05.07.21-.14.25-.29.2zm.25.82c.14-.03.24.02.31.14-.1.1-.05.21-.24.19-.1-.11-.08-.19-.07-.33zm.41 3.33c-.99-.53.65-.85 0 0zm.74-40.87c-.02-.07.04-.09.04-.15.14-.05.15.07.29.02.01.23-.2.22-.33.13zm.43 2.68c0-.01 0-.01.01-.02.02-.05.02-.07.03-.07-.01 0-.03.06-.04.09zm-.15-3.14c-1.26-.53 1.08-1.66 0 0zm-.82 7.54c-.31.16-.44-.33-.19-.48.26.01.24.28.19.48zm-.32-7.27c.06.05.17.04.29.02.04.16 0 .27-.02.38-.34.13-.41-.22-.27-.4zm0 3.26c.04.17.15.27.23.38-.16.24-.54 0-.67-.1.03-.21.26-.22.44-.28zm-.2 1.85c-.18.18-.14.32-.35.42-.51-.19-.2-.5-.09-.72.15.1.39.17.44.3zm-.8-4.76c.04.04.11.05.19.05l-.1.33c-.14-.01-.18-.26-.09-.38zm-.08 8.93c-.1.1-.05.21-.24.19-.1-.11-.08-.19-.07-.33.14-.03.25.02.31.14zm-.26-1.17c.07.22-.13.26-.28.2-.04-.07.01-.09 0-.15.12-.08.15.03.28-.05zm-.7-.96c.17-.03.2-.11.28-.11.9.95-.54.92-.58-.12.17-.01.19.16.3.23zm-.15-2.35c.21.45-.59.68-.94.64.13-.37.54-.47.94-.64zm-.67 14.48c.02.23.13.28.07.48-.43.23-.45-.16-.54-.36.16-.04.35-.17.47-.12zm-.54-5.23c.03.07-.02.09 0 .15-.13.08-.16-.04-.29.04-.06-.22.15-.26.29-.19zm-.3-1.2c-.01.01-.03.02-.04.03.02 0 .05-.01.09 0 .09.11.07.19.05.33-.14.02-.24-.03-.3-.16.05-.04.07-.09.09-.12-.15.06-.35-.02-.3-.2.16-.01.34-.06.41.12zm-.41-7.25c-.01 0-.02 0-.03 0-.05 0-.07 0-.08 0zm.93 19.98c-1.69 1.22-.9-1.77 0 0zm.27 4.91c-.09.13-.37.04-.43-.11.06-.02.11-.08.15-.16zm-1.03 1.1c.3-.42.85.12.92.43-.38-.01-.7-.12-.92-.43zm.87 1.92c.06.16-.1.23-.13.35.07.15.16.16.19.24-.02.04-.04.06-.07.09h.06c-.01 0-.02 0-.03 0-.02 0-.02 0-.03 0-.6.93-.94-.34.01-.68zm-.25 2.57c.28.07.19.51.13.66-.21.05-.3-.16-.42-.31.15-.09.21-.23.29-.35zm-.26 1.39c.15-.25.54-.03.67.07-.01.22-.24.24-.42.3-.04-.16-.15-.26-.25-.37zm.69 1.55c-.04-.04-.11-.05-.19-.04l.08-.34c.14.01.2.27.11.38zm.37-10.12c.07.04.18.02.29-.02.06.15.04.26.04.38-.33.17-.45-.16-.33-.36zm.31 2.73c.4-.29.76.04 1.16-.01.07.3.23.41.3.7-.04.09-.22.12-.34.17-.27-.51-.87-.31-1.12-.86zm1.11 1.76c.21.45-.59.68-.94.64.13-.37.54-.47.94-.64zm-.6 4.34c.14.18-.04.48-.22.34.04-.15.04-.33.22-.34zm.09 2.22c-.09.03-.22.01-.3-.06.05-.06.05-.17.04-.29.16-.03.27.01.38.03.03.1.02.16-.01.22.22-.01.32.34.11.48-.22.01-.24-.19-.22-.38zm.08 2.45c.01-.21.26-.22.43-.2.07.26-.3.32-.43.2zm.63 2.62c-.03.05-.07.11-.1.15-.14-.05-.14-.18-.1-.29-.12-.1-.23-.21-.28-.3.37-.12.7.14 1.08.36-.13.23-.37.2-.6.08zm.25-2.61c-.06-.34-.24-.47-.3-.8.05-.1.25-.12.4-.18.27.58.96.4 1.21 1.03-.47.3-.86-.08-1.31-.05zm1.14 1.96c-.08-.22.19-.45.33-.26-.08.14-.14.32-.33.26zm.81 1.98c-.09-.03-.15-.08-.17-.13-.12.19-.46.06-.45-.19.13-.18.3-.09.44.04.03-.1.12-.18.22-.21.02.07.1.13.2.19-.34-.32-.01-1.42.59-.06-.27.18-.46.17-.57.08-.08.13-.17.2-.26.28zm.56.53c.02.08.11.14.21.2-.07.15-.16.21-.25.29-.34-.12-.18-.44.04-.49zm0 1.71c-.02-.14-.14-.16-.01-.3.15-.02.2.05.31.14-.07.12-.17.18-.3.16zm-.65-5.84c-.16-.47.26-.72.34-1.11.3.02.46-.1.76-.08.08.07.05.24.06.38-.57.1-.56.73-1.16.81zm1.41 2.81c.06-.02.1-.06.14-.13l.23.26c-.09.12-.33.02-.37-.13zm.34 3.5c-.22-.07-.13-.26 0-.35.08.01.07.07.12.09 0 .15-.11.11-.12.26zm1.08-1.05c-.21-.54-.83-.42-1.01-1 .44-.24.75.13 1.16.13.03.3.18.43.22.73-.06.1-.24.1-.37.14zm.81 1.64c-.14-.02-.2.09-.29-.08.03-.14.1-.17.22-.25.11.1.13.21.07.33zm.52 1.03c-.14-.02-.2.09-.29-.08.03-.14.1-.17.22-.25.11.09.13.2.07.33zm.78-.37c-.25-.05-.3-.28-.26-.52-.03-.04-.06-.08-.08-.13.03-.07.08-.04.12-.09.01 0 .01.01.02.01.06-.16.14-.31.22-.4.23.31.07.7-.02 1.13zm-.77-1.75c.22-.3.5-.49.89-.49.17.48-.59.62-.89.49zm.86-1.27c-.23-.32-.34-.67-.22-1.06.54-.01.44.8.22 1.06zm.24-1.27c-.03-.04-.04-.06-.05-.06.01.01.04.06.06.08 0 0-.01-.01-.01-.02zm.54 5.17c-1-.53.64-.85 0 0zm.18-2.56c-.17-.05-.13-.21-.21-.31-.17-.03-.22.04-.3.01-.02-.04-.02-.07-.04-.11-.01.02-.02.03-.03.05 0-.01.01-.01.01-.02.01-.02.01-.02.02-.03-.4-1.01.83-.55.55.41zm2.09 2.76c-.27-.3-1.17-.44-.78-1.02-.14-.2-.25-.58-.58-.48.01-.13 0-.27.08-.33.72.22 1.22.36 1.5.94-.09.18-.15.3.01.43-.07.16-.2.25-.23.46zm.21-2.84c-.1.02-.23-.1-.35-.17.24-.52-.27-.89.02-1.42.48.15.43.63.71.92-.19.24-.19.44-.38.67zm.65 1.44c.24-.52-.27-.89.02-1.42.48.15.43.63.71.92-.19.24-.19.43-.38.66-.1.04-.23-.09-.35-.16zm.71 1.72c-.08-.22.19-.45.33-.26-.08.14-.14.32-.33.26zm5.88-7.98c-.01 0-.01-.01-.02-.01-.04-.03-.06-.04-.06-.05 0 .01.05.05.08.06zm.26 1.24c-.29-.23-.48-.51-.48-.9.49-.15.61.61.48.9zm-2.51-1.15s-.01.01-.02.02c-.04.03-.06.04-.06.05.01-.01.06-.05.08-.07zm-.23.77c-.03.06-.12 0-.2-.01.02-.18.18-.04.2.01zm-.17 2.73c.11.09.01.33-.14.37-.01-.06-.06-.1-.13-.15zm-.76 1.38c.74 1.13-1.82.76 0 0zm-.8-2.85c.04.07.15.1.26.13-.03.16-.1.25-.16.35-.37-.02-.3-.37-.1-.48zm.34 1.34c-.33.23-.67.32-1.06.2-.01-.55.8-.43 1.06-.2zm-1.18 1.03c.15.06.38.08.45.18-.12.19-.06.31-.23.43-.48-.07-.27-.4-.22-.61zm.18 3.96c-.11-.37.16-.7.38-1.07.44.24-.08.9-.38 1.07zm.86-2.38c-.22.07-.45-.2-.25-.34.13.09.31.15.25.34zm.48 1.6c-.1.12-.21.22-.31.27-.11-.37.16-.7.38-1.07.23.13.19.37.07.6.05.03.1.07.15.11-.06.14-.18.14-.29.09zm1.17-1.76c-.18-.13-.09-.31.05-.44-.09-.03-.18-.12-.2-.23.07-.02.13-.1.19-.19-.33.34-1.42-.02-.06-.59.18.27.16.46.07.57.15.07.21.17.29.25-.03.09-.08.14-.14.17.19.13.06.48-.2.46zm.61-2.46c-.01-.06-.06-.1-.13-.15l.27-.22c.11.1 0 .33-.14.37zm.09-1.5c-.2-.08-.15-.31-.15-.49.17.01.3-.06.44-.12.18.23-.16.52-.29.61zm.18 2.79c.08-.02.14-.11.2-.21.15.07.21.17.29.25-.13.35-.44.18-.49-.04zm.09-2.49c.06-.16.03-.3.02-.45.27-.11.45.3.5.45-.15.17-.34.05-.52 0zm1.32 2.53c-.01-.15.05-.2.14-.31.13.06.18.16.16.3-.14.02-.17.14-.3.01zm.28-2.23c-.03.17.03.23.01.3-1.19.53-.69-.81.3-.5-.05.16-.21.12-.31.2zm.92 2.55c-.09.05-.25-.03-.38-.07.09-.57-.51-.77-.38-1.36.01-.08.07-.07.09-.12.15.01.11.12.26.13-.01.04-.03.05-.05.07.26.14.37.45.64.61-.12.27-.06.46-.18.74zm.13-3.02c-.14-.03-.17-.11-.25-.23.1-.1.21-.12.33-.06-.02.14.09.2-.08.29zm.16.45c.05-.03.08-.09.1-.17.09.03.18.06.27.08-.02.05-.01.09.02.11-.05.13-.31.1-.39-.02zm.07-1.77c-.04.03-.08.06-.13.07-.07-.03-.04-.08-.09-.12 0-.01.01-.01.01-.02-.16-.06-.31-.15-.4-.23.32-.22.71-.06 1.14.05-.05.25-.28.29-.53.25zm.8.82c-.14-.03-.17-.11-.25-.23.1-.1.21-.12.33-.06-.02.14.09.2-.08.29zm.62-1.93c-.54.99-.84-.66 0 0zm-.05-1.82c-.52-.25-.89.26-1.42-.04.15-.47.64-.42.93-.69.23.2.43.19.66.39.03.1-.09.23-.17.34zm5.99-26.62c.03.48-.33.35-.55.34.03-.16-.01-.39.08-.47.21.08.31-.01.47.13zm-1.07.58c.17.01.17.18.26.26.17-.01.21-.08.29-.07.78 1.05-.64.85-.55-.19zm-.14-3.64c.16.01.34-.02.39.17-.16.17-.49.05-.39-.17zm.06 1.83c.3.06.47-.04.76.01.07.08.02.25.02.39-.57.04-.65.66-1.25.67-.1-.49.34-.68.47-1.07zm-.41 3.54c.3.06.47-.04.76.01.02.02.02.06.02.1.18-.33.58-.39 1-.51.08.24-.1.39-.34.47-.02.05-.04.09-.08.13-.08.01-.08-.05-.14-.06 0-.01.01-.01 0-.02-.17.03-.33.03-.45 0 .01.08 0 .18-.01.27-.2.01-.33.1-.45.21.15.14.27.36.29.51-.23-.03-.43-.11-.6-.24-.13.11-.27.2-.49.2-.08-.49.36-.68.49-1.07zm1.19 3.06c0 .06-.11.06-.18.09-.07-.15.14-.11.18-.09zm-.48 5.29c.02.15-.09.21-.2.22-.03.15-.08.3-.13.39-.28-.27-.21-.68-.2-1.12.26 0 .35.23.35.49.06 0 .13.01.18.02zm-.02 2.69c.01 1.13-1.06-.15 0 0zm-.77-5.82c1.21.61-1.2 1.56 0 0zm-.24-2.41c-.03-.17-.13-.28-.21-.4.18-.23.54.04.66.15-.04.21-.27.2-.45.25zm.28 1.22c-.04-.04-.1-.06-.19-.06l.12-.33c.15.03.18.28.07.39zm-.16-4.54c.04.17-.12.22-.17.33.05.16.14.18.16.26-.03.04-.05.05-.08.08.02 0 .04.01.06.01-.01 0-.02 0-.03 0-.02 0-.02 0-.03 0-.7.84-.89-.46.09-.68zm-.56 2.52c.27.1.12.53.05.67-.22.03-.28-.19-.37-.36.16-.07.23-.2.32-.31zm-.33 5.24c.16.01.34-.02.39.17-.16.17-.49.05-.39-.17zm.54 1.84c.03.3.18.43.22.73-.05.09-.23.09-.36.13-.21-.54-.83-.42-1.01-1 .43-.24.74.13 1.15.14zm-.9 3.54c.3.06.47-.04.76.01.07.08.02.25.02.39-.57.04-.65.66-1.25.67-.1-.5.35-.69.47-1.07zm.74 2.39c-.18-.06-.34-.02-.5-.01-.13-.3.33-.51.5-.57.18.15.05.37 0 .58zm-.6.16c-.04.22-.27.21-.45.25-.03-.17-.13-.28-.21-.4.18-.23.54.04.66.15zm-.39 2.72c.27.1.12.53.05.67-.22.03-.28-.19-.37-.36.15-.07.23-.2.32-.31zm.09 2.73c-.14.02-.17.14-.3.01-.01-.15.05-.2.14-.31.12.06.18.16.16.3zm-.52-19.28c0 .01-.01.01-.01.02-.02.05-.03.07-.03.07s.03-.05.04-.09zm-.22 12.25c-.17.36-.42.62-.82.7-.28-.47.48-.77.82-.7zm-.47 4.99c.01.05.03.08.07.08.02.14-.22.25-.35.18.03-.05.03-.12 0-.2.09-.02.19-.04.28-.06zm-.08-.57c0 .06-.11.06-.18.09-.07-.15.14-.11.18-.09zm-.15-22.25c.02-.04.05-.09.13-.2-.05.08-.09.15-.13.2-.09.17.4-.39.33-.22-.5.47.03.16-.52.7-.25.07-.07-.09.19-.48zm-.93 23.94c.15.06.38.08.45.18-.12.19-.06.31-.23.43-.48-.07-.27-.4-.22-.61zm-.07 2.25c.13.09.31.15.25.34-.21.07-.44-.2-.25-.34zm.26.42c2.09-.08-.23 1.96 0 0zm.54 3.37c.14.1.06.24.1.36.15.08.22.04.29.08.15 1.3-.98.42-.39-.44zm.45-.55c-.09.05-.25-.03-.38-.07.09-.57-.51-.77-.38-1.36.05 0 .08.02.13.03-.02-.03-.05-.06-.06-.09.13-.16.34-.02.47.1-.03.08-.09.11-.15.11.19.16.32.4.55.53-.13.29-.06.47-.18.75zm.28-2.68c-.08-.39-.8-.96-.17-1.27-.02-.24.07-.63-.27-.7.07-.1.14-.24.23-.25.52.55.88.91.84 1.56-.17.11-.28.19-.2.38-.14.1-.3.1-.43.28zm.91 1.86c-.09.05-.25-.03-.38-.07.09-.57-.51-.77-.38-1.36.5.01.59.48.94.69-.12.28-.06.46-.18.74zm.47-9c.04.17-.12.22-.17.33.05.16.14.18.16.26-.03.04-.05.05-.08.08.02 0 .04.01.06.01-.01 0-.02 0-.03 0-.02 0-.02 0-.03 0-.71.84-.89-.46.09-.68zm-.21 4.06c-.03-.07.03-.09.02-.15.14-.07.16.05.29-.02.04.23-.17.24-.31.17zm.52-1.05c-.02-.09-.13-.15-.24-.22.08-.17.18-.24.28-.33.38.14.2.49-.04.55zm-.36-1.93c.35-.38.83.22.86.54-.37-.05-.67-.2-.86-.54zm.89-2.78c.17.01.17.18.26.26.17-.01.21-.08.29-.07.78 1.05-.64.85-.55-.19zm.66 2.66c-.37-.02-.3-.37-.1-.48.04.07.15.1.26.13-.03.16-.1.24-.16.35zm.12-.8-.26-.29c.1-.13.37-.02.42.14-.06.01-.11.07-.16.15zm-.71-2.18c-.06-.3-.21-.42-.27-.72.05-.09.22-.11.35-.16.15.02.17.11.15.2.29.28.74.25.93.72-.41.28-.75-.06-1.16-.04zm1.32-3.12c-.14-.13-.45.17-.61 0-.02-.28.16-.34.15-.6.25 0 .23-.06.52-.06.05.18.03.5-.06.66zm-.75-3.5c1.77-1.1.77 1.82 0 0zm.96-1.22c-.22-.03-.23-.22-.18-.41-.1.02-.22-.02-.29-.1.06-.05.07-.16.07-.28.16-.01.26.04.38.08.02.1 0 .17-.03.22.23.01.28.37.05.49zm-.13-3.55c-.03-.07.03-.09.02-.15.14-.07.16.05.29-.02.04.23-.17.25-.31.17zm.36-.87c-.08-.12-.05-.2-.03-.34.14-.01.23.05.29.18-.12.09-.08.21-.26.16zm.6 2.51c-.45.18-.43-.22-.49-.43.16-.02.37-.12.48-.06-.01.23.1.3.01.49zm.42-3.21c-.14.04-.2-.01-.33-.07.03-.14.12-.21.26-.22.04.13.17.13.07.29z" fill="#ff8300"/><g fill="#483729"><path d="m62.28 2.17c.08-.15-.03-.14-.03-.17-.11.26.05.17.03.17z"/><path d="m34.14 41.97.02.05c.01-.07.01-.1-.02-.05z"/><path d="m32.12 48.8c.04-.01.11-.06.25-.19z"/><path d="m38.3 33.49.02-.25c-.17.33-.05.21-.02.25z"/><path d="m40.26 39.66.01-.02-.02.02z"/><path d="m39.87 40.22c.1-.3.22-.41.38-.56l-.36-.02z"/><path d="m32.48 48.41c0-.02.02-.08.05-.15-.08.12-.13.2-.05.15z"/><path d="m38.29 33.54.01-.02c0-.01 0-.02-.01-.03z"/><path d="m47.9 30.86c.02.02.07-.01.21-.15-.1.09-.16.13-.21.15z"/><path d="m52.28 23.84.06-.24c-.08.11-.11.11-.18.16z"/><path d="m51.76 25.05c-.01-.06.19-.53-.05-.13.01.07-.23.71.05.13z"/><path d="m43.45 36c-.19.31-.34.43-.12.4.43-.41-.01-.2.39-.56.05-.14-.33.3-.27.16z"/><path d="m43.45 36c.03-.05.06-.1.09-.16-.05.09-.08.13-.09.16z"/><path d="m62.55 3.44.28-.25-.22.13z"/><path d="m63.12 2.55c-.05.07-.15.2-.22.23l.17.03z"/><path d="m31.79 46.09h.04c.12-.15.19-.29.35-.59z"/><path d="m34.89 40.18-.04.08.19-.09z"/><path d="m36.69 36.22c-.07.16-.16.35-.24.51.16-.36.41-.48.24-.51z"/><path d="m27.48 13.55c-.12-.07-.12.04-.14.04.21.09.14-.07.14-.04z"/><path d="m59.78 36.39c.01-.01.03-.02.05-.02-.07-.01-.09 0-.05.02z"/><path d="m65.81 38.24c.02-.01 0-.06-.08-.15z"/><path d="m52.89 33.03h-.22c.28.14.18.03.22 0z"/><path d="m58.01 31.26-.02-.01.02.02z"/><path d="m58.47 31.57c-.26-.06-.35-.16-.46-.3l-.05.33z"/><path d="m67.53 39.74c.1.03.57.38.85.56-1.44-1.11-1.17-.91-2.52-1.89 0-.05-.02-.1-.05-.17-.12.04-1.17-.71-1.86-1.18-.01 0-.01 0-.02-.01l-.04-.03c.02.01.04.02.06.04l.06.01c-.07-.04-.13-.08-.2-.12l-.25-.22c.15.08.36.21.6.36-.04 0-.09 0-.15-.02.46.29 1 .63 1.32.8-.11-.07-.25-.17-.36-.27.13.09.24.16.28.17s-.16-.12-.4-.28l.45.19-.27-.16-.58-.64c-1.17-.82-2.16-1.37-2.92-1.95.33.14.3 0 .48-.02.04.13.22.27.49.47.26.19.61.44.84.66-.23-.22-.04-.14.09-.06l-1.19-.87c.19.02-.07-.18-.28-.42-.07.23-.87-.57-1.11-.68.04-.06.13-.09.47.23-.27-.46-.63-.21-.89-.62.08.07.11.11.17.11-.22-.11-.63-.54-.48-.49l.08.07c-.5-.47-1.56-1.37-1.76-1.3.01-.02.22-.11.28-.12l-.89-.21-.33-.28c.08-.16.16-.35.49-.15-.11-.12-.24-.28-.54-.46.07.09.05.36-.07.27-.19-.41-.15-.26-.43-.72.1.14-.21.21-.4.03.06 0 .15-.2.24-.16l-.66-.24c.15.07.16-.14.1-.29.02.08-.42-.38-.57-.47l.17.23c-.53-.52-.78-.21-1.32-.71.1.02.38-.1.12-.37-.11-.01-.37-.02-.67-.08l-.61-.54c.37.1.77.23 1.02.34-.17-.23 0-.12-.32-.38-.06-.15.24.07.33.15l-.69-.67c-.07.14-.65-.37-.71-.25l.89.57c-.07.14-.74-.08-1.23-.55-.09-.16.27-.12.3-.16-.1-.02-.55-.35-.57-.42l.27.13c-.25-.29-.6-.26-.85-.67-.11-.11-.23-.46-.3-.41.05.18-.04.39-.17.54l-.08-.07c.07-.21.16-.45.22-.64-.1.02-.22.28-.33.55l-.08-.07 1.16-2.31c.34-.62.86-1.73 1.27-2.36.02-.1.06-.23.08-.31l.79-1.58.11-.18-.05.07.7-1.4c.01.01.01.02.03.01l.09-.26.08-.17c0 .05 0 .11.05.03-.02-.02-.02-.06-.01-.12l6.88-13.68c.21-.25.47-.52.45-.63l-.2.27c.03-.08.02-.11 0-.13l.36-.71-.68.77c-.2.09-.43.19-.48.1-.19.5-1.08.81-1.42 1.61-.15.11.05-.16-.05-.12-.07.22-.22.42-.56.74l.02-.05c-.85 1-1.29 1.36-2.31 2.43l.15-.01c-.22.23-.29.26-.41.35-.12.38.59-.66.51-.3-.44.17-1.48 1.67-1.85 1.73-.32.37.19-.03-.14.34l-.12.07-.02.15c-.22.23-.39.3-.44.27.06-.05.13-.18.18-.24-.33.26-.75.89-.86.98l.34-.32c-.83 1.04-1.97 2.2-2.71 3.25l.1-.04c-.58.8-.56.55-1.24 1.39l.02-.04c-.1.19-.28.43-.47.64.14-.24-.42.31-.24 0-.63.86-.29.45-.61 1.1l-.17.07c-.1.23-.09.27-.42.69.24-.38-.32.17-.07-.26-.88.73-.97 1.38-1.51 1.59-.17.54.74-.65.59-.4.22-.13-.15.43-.4.69-.24.27-.63.27-1.22.95.06-.07.05-.08.11-.15-.27.22-.38.55-.73.8-.05.27-.36.4-.27.57l.52-.65c-.2.28-.34.6-.62.95l-.11-.05c.04-.08.03-.07-.01-.01l-.1-.05c.18-.21.37-.44.47-.64-.22.13-.53.8-.51.48-.01.04-.03.07-.05.11l-.16-.08c-.47-.28-1.46-.73-2.01-1.1-.09-.02-.22-.05-.28-.05l-1.17-.59-.24-.15.09.07h.01l-1.18-.59c.01-.01.02-.02.02-.04l-.28-.09-.09-.04c.04-.01.12 0 .05-.06-.02.02-.08.02-.14.01l-1.08-.54-9.53-4.79-.07-.09c-.22.01-.7-.6-.86-.56l.22.16c-.1-.03-.14 0-.14.05l-1.73-.99 1.02.87c.06.18.89.76.81.82.43.13.62.92 1.3 1.16.08.13-.14-.03-.11.06.19.04.35.16.61.44l-.05-.01c.81.69 1.1 1.05 1.96 1.89v-.14c.18.18.2.24.27.34.33.07-.54-.48-.22-.44.11.39 1.36 1.2 1.37 1.53.3.26-.01-.17.29.09l.03.12h.13c.19.18.23.33.2.38-.04-.05-.14-.11-.2-.15.2.28.73.61.8.7l-.26-.28c.85.67 1.78 1.6 2.65 2.19l-.03-.09c.66.46.44.46 1.13 1.01l-.03-.01c.16.08.36.21.53.38-.2-.1.24.36-.02.22.71.49.37.22.92.46l.04.15c.2.07.23.05.58.32-.32-.18.13.28-.24.09.57.74 1.14.76 1.28 1.24.47.1-.51-.62-.3-.5-.1-.19.37.1.57.31.19.17.21.46.56.85-.04.14-.04.3-.13.53l-.1-.05c-.53.9.08.35-.42 1.15l.04-.42-.18.45-.06-.15c-.16.52-.25.65-.52 1.1.12-.07.14.15-.06.56-.2.25-.01-.2-.29.39.01-.16 0-.34.22-.55-.02-.04 0-.16-.01-.2-.22.27-.4.75-.5.96.04-.08.1-.17.14-.22l-.29.91c-.1.11-.08-.01-.06-.12-.08.18-.09.32-.21.57-.05-.1-.13-.13.01-.51l-.32.85c-.06.04-.3.37-.28.25-.27.42-.4 1.17-.76 1.73 0 .04-.02.11-.07.24-.3.55-.64.99-.87 1.71l-.33.3c-.23.53.43-.42.05.47-.26.63-.23.17-.38.36-.08.34-.2.94-.6 1.44.07-.2.16-.33.24-.51l-.29.39c.13-.58.36-.93.05-.58.24.2-.81 1.67-.56 1.87l-.2.25c.04-.08.03-.1.08-.18-.41.48-.01.51-.4 1.19-.14.24-.27.39-.22.2l-.21.58c-.09.16-.11.09-.03-.06l-.4.85v-.01c-.02.14-.09.44-.13.59-.15.19.02-.12-.04-.08l-.17.5c-.17.15-.04-.26.13-.58-.24.15-.28.25-.32.43-.02.09-.05.19-.11.33-.04.08-.06.12-.13.25-.08.13-.17.29-.3.5l.3-.69c-.06.03-.15.14-.25.29-.09.14-.18.29-.28.46-.19.34-.4.73-.73 1.26.1-.14.44-.66.67-.97.24-.32.38-.44.23-.05-.14.22-.31.55-.43.92-.17.09-.35.51-.61 1.04l-.25.18c-.24.57-.06.38-.09.58-.35.65-.69 1.09-1.01 1.53-.33.62-.1.28.11-.04.22-.32.42-.59.15-.04-.58 1.03-.75 1.49-.91 2.02-.47.82-.27.34-.52.75.05-.01.1-.04.17-.08-.07.14-.19.29-.25.37-.04.18.53-.74.39-.37.25-.34-.01.09-.38.72.02.07.17.02.86-.92 0 .06-.38.57-.54.83.61-.79.86-1.11 1.11-1.43.21-.29.43-.58.97-1.31.09-.05.19-.12.3-.2-.15.01.64-1.08 1.11-1.78v-.01l.03-.03c-.01.02-.02.03-.03.04l.01.03c.04-.06.07-.12.1-.17l.27-.31c-.06.13-.17.32-.31.54-.03-.01-.06-.02-.07-.05-.26.43-.59.95-.71 1.22.07-.11.18-.26.29-.39-.08.13-.15.23-.15.26 0 .02.13-.17.29-.41-.03.11-.05.22-.07.32l.13-.24.89-.86c.84-1.2 1.29-2.07 1.91-2.88-.1.29.1.17.2.27-.16.07-.29.24-.43.45-.19.26-.46.64-.74.93.29-.31.26-.17.18-.05l.49-.66c.18-.23.22-.32.33-.48.07.09.21-.11.43-.28-.3.01.4-.68.63-1.05.07.03.06.16-.29.53.5-.32.29-.73.77-1.06-.08.1-.14.14-.14.2.14-.27.66-.77.6-.6l-.08.1c.57-.61 1.69-1.92 1.63-2.14.02.01.1.23.1.3l.34-1.03.34-.39c.17.07.37.14.1.54.15-.14.33-.3.57-.66-.11.09-.4.1-.29-.05.48-.26.31-.2.84-.57-.16.13-.2-.21.02-.45 0 .06.21.15.15.25l.34-.77c-.1.18.14.17.31.08-.09.03.46-.52.59-.7l-.27.22c.63-.66.33-.91.93-1.58-.03.12.06.41.39.09.02-.13.06-.42.16-.77l.66-.75c-.16.43-.34.89-.49 1.19.27-.22.13-.01.46-.4.17-.09-.1.28-.2.39l.82-.86c-.15-.06.49-.78.36-.83l-.73 1.07c-.15-.06.17-.84.75-1.46.19-.12.1.3.15.32.03-.12.45-.66.53-.7l-.17.32c.35-.31.35-.71.83-1.03.14-.14.53-.31.48-.39-.2.07-.42-.01-.57-.13l.43-.51.02.04.08-.1-.03-.02.44-.51c.1.07-.13.56.09.45-.02-.04.06-.2.09-.27.14-.11.08.05.23-.1l.17.07-.13.07c.43.11.54.19.9.41-.05-.11.14-.15.47.01.2.17-.17.03.31.25-.14.01-.29.02-.45-.17-.04.02-.14.01-.17.03.21.19.61.33.78.41-.06-.04-.14-.08-.17-.12l.75.21c.09.09-.01.08-.11.06.14.06.26.06.47.16-.09.05-.12.14-.43.03l.7.24c.03.06.29.26.19.25.34.23.97.3 1.42.6.03 0 .09.01.2.05.44.25.8.54 1.38.7l.23.29c.44.18-.32-.38.4-.09.52.2.12.21.28.34.28.05.78.12 1.18.47-.16-.05-.27-.13-.42-.19l.31.25c-.48-.08-.76-.28-.49 0 .19-.25 1.36.65 1.54.4l.2.17c-.06-.04-.08-.02-.15-.06.38.35.43-.03.98.3.19.12.31.23.16.19l.48.16c.13.07.07.1-.05.03l.7.32h-.01c.19.05.51.12.66.16.25.17-.12-.02-.06.05l.52.18c.26.22-.17.09-.59-.13.28.31.44.37.63.43.21.07.43.12 1.15.58l-.56-.24c.55.47 1 .63 1.95 1.23-.16-.11-.58-.4-.99-.68-.34-.25-.53-.43-.26-.34.21.13.49.28.71.33.21.23.52.35.93.55l.32.32c.41.16.17-.04.25-.07.55.29 1.04.66 1.51 1 .52.27.18.06-.13-.16-.32-.22-.61-.43-.18-.23.9.52 1.21.6 1.53.67.72.42.38.29.77.53-.06-.07-.12-.15-.2-.23.11.06.28.18.37.25.09 0-.78-.55-.52-.47-.36-.26.03-.02.6.32.12.06.17 0-.71-.64zm-3.31-2.69c-.13-.1-.22-.19-.26-.26.2.12.27.21.26.26zm-30.79 10.02c.12-.15.23-.27.34-.35-.12.18-.24.3-.34.35zm9.45-16.69c.02.06.09.12.18.17-.06.13-.14.18-.21.25-.29-.11-.15-.37.03-.42zm2.29-5.38c-.06-.18.16-.38.28-.22-.07.11-.12.26-.28.22zm-1.26.67c-.21-.08-.07-.36.07-.4.14.11.02.28-.07.4zm.73 1.02c.13-.18.31-.05.43.09-.03.29-.44.16-.43-.09zm-.72-1.86c-.01-.04-.02-.07-.03-.11.09-.17.19-.35.28-.51.27.24.69.23.86.66-.4.26-.73-.07-1.11-.04zm-.2-1.62c-.05.05-.11.1-.16.15-.03-.01-.07-.02-.09-.03 0-.15.16-.18.3-.17-.03.01-.04.04-.05.05zm-.38 6.82-.11-.04c0-.02-.01-.04-.01-.06.04.03.09.06.12.1zm1.15-.53c.12-.01.17.04.26.12-.05.11-.13.15-.25.14-.02-.13-.12-.15-.01-.26zm1.1-2.56c.06.01.06.06.1.07-.01.13-.1.09-.11.22-.17-.05-.1-.22.01-.29zm.3-.69c.02.06.09.12.18.17-.06.13-.14.18-.21.25-.29-.11-.16-.37.03-.42zm.22-.76c-.95.64-.67-1.53 0 0zm-.13-1.2c.05-.41.34-.23.52-.19-.05.13-.06.32-.15.38-.17-.1-.26-.05-.37-.19zm4.43 3.94c0 .01-.03.05-.05.07 0 0 .01-.01.01-.02.03-.03.04-.04.04-.05zm-.62.04c-.05.07-.11.08-.16.06.03-.04.06-.07.1-.1.02.02.03.03.06.04zm-.18-2.21c.15.01.03.15-.01.17-.04-.03 0-.11.01-.17zm-.39-.24c-.02.08-.04.16-.07.23-.04-.02-.07-.01-.09.02-.11-.04-.09-.26.01-.33.03.03.08.06.15.08zm-.11.98c-.01.14.06.25.1.37-.19.16-.44-.12-.52-.23.07-.18.26-.14.42-.14zm1.63 1.56c-.84-.45.54-.72 0 0zm-1.72-6.45c.15.01.14.16.22.22.14 0 .18-.07.25-.06.66.89-.54.72-.47-.16zm.54 2.33c-.13-.01-.34-.08-.52-.17.01-.33.4-.2.52.17zm-2.46 1.06c.06-.01.07.04.12.04.03.12-.07.12-.04.24-.19-.01-.17-.18-.08-.28-.95.64-.67-1.53 0 0zm0 .59.19.22c-.08.1-.28.01-.31-.11.04-.01.08-.05.12-.11zm-.42-1.57c.19-.25.43-.41.75-.42.14.42-.51.53-.75.42zm1.19 3.25c.01.12.08.18.09.3-.02.04-.1.04-.15.05-.09-.22-.34-.17-.42-.41.18-.09.31.06.48.06zm-.09-.16c-.17-.13-.11-.28-.07-.42-.09.06-.26-.01-.29-.12.05-.01.09-.05.12-.11l.18.21c0-.01 0-.02.01-.02.17.07.31.05.46.06.13.25-.26.38-.41.4zm.34-1.92c-.11-.13-.5-.19-.33-.44-.06-.08-.11-.25-.25-.2.01-.05 0-.12.03-.14.31.09.52.15.64.4-.04.08-.06.13.01.19-.03.07-.09.1-.1.19zm-.01-.62c.01-.31.31-.26.4-.09-.06.03-.08.13-.11.22-.13-.03-.21-.08-.29-.13zm1.01 5.28c.14.1.05.1-.05.1.01-.05.03-.08.05-.1zm.06-.05c.02-.02.04-.03.07-.05.03.03.04.06.06.09zm2.2-10.25c.46-.01.37.68.18.9-.19-.27-.28-.57-.18-.9zm-10.38 3.33c.12.04.06.12.18.17-.11.16-.24.04-.28-.09.03-.06.07-.04.1-.08zm5.03 5.22c.01-.04.02-.09.04-.13-.04.01-.07.03-.12.03-.09-.41.29-.57.4-.9.25.05.39-.04.65.01.06.06.02.21.01.33-.33.02-.47.26-.68.42.02.12 0 .25-.02.39-.1-.05-.19-.09-.28-.15zm-12.64 15.11c.01.26-.12.39-.34.73.07-.18.2-.61.34-.73zm14.9-13.09c.01-.01.01-.01.02-.03v-.01c.02.01.04.02.07.04zm13.42 6.92c.06-.11.24.05.56.25-.12-.04-.38-.09-.56-.25z"/><path d="m65.52 37.96c-.04-.01-.11-.05-.19-.09.12.08.21.13.19.09z"/><path d="m52.93 33.03-.02-.01c-.01 0-.02.01-.02.01z"/><path d="m45.13 21.53-.2-.04c.09.07.08.1.12.16z"/><path d="m55.38 28.75c-.33-.36-.18.03-.46-.31-.12-.03.23.28.11.24.26.15.35.27.35.07z"/><path d="m28.63 13.16-.2-.24.09.19z"/><path d="m28.07 12.9.04-.16-.23-.02c.06.04.17.12.19.18z"/><path d="m63.56 38.47.58.38-.04-.06c-.17-.12-.3-.19-.54-.32z"/><path d="m58.31 35.8.07.04-.07-.18z"/><path d="m55.09 34.36c.13.07.29.12.42.19-.3-.12-.39-.35-.42-.19z"/></g></svg>